<svg width="512" height="512" viewBox="0 0 512 512" fill="none" xmlns="http://www.w3.org/2000/svg">
<path d="M502.6 278.6C515.1 266.1 515.1 245.8 502.6 233.3L374.6 105.3C362.1 92.8 341.8 92.8 329.3 105.3C316.8 117.8 316.8 138.1 329.3 150.6L402.7 224H192C174.3 224 160 238.3 160 256C160 273.7 174.3 288 192 288H402.7L329.3 361.4C316.8 373.9 316.8 394.2 329.3 406.7C341.8 419.2 362.1 419.2 374.6 406.7L502.6 278.7V278.6ZM160 96C177.7 96 192 81.7 192 64C192 46.3 177.7 32 160 32H96C43 32 0 75 0 128V384C0 437 43 480 96 480H160C177.7 480 192 465.7 192 448C192 430.3 177.7 416 160 416H96C78.3 416 64 401.7 64 384V128C64 110.3 78.3 96 96 96H160Z" fill="#747680"/>
</svg>
