<svg width="448" height="512" viewBox="0 0 448 512" fill="none" xmlns="http://www.w3.org/2000/svg">
<path d="M128 136C128 113.9 110.1 96 88 96H40C17.9 96 0 113.9 0 136V184C0 206.1 17.9 224 40 224H88C110.1 224 128 206.1 128 184V136ZM128 328C128 305.9 110.1 288 88 288H40C17.9 288 0 305.9 0 328V376C0 398.1 17.9 416 40 416H88C110.1 416 128 398.1 128 376V328ZM160 136V184C160 206.1 177.9 224 200 224H248C270.1 224 288 206.1 288 184V136C288 113.9 270.1 96 248 96H200C177.9 96 160 113.9 160 136ZM288 328C288 305.9 270.1 288 248 288H200C177.9 288 160 305.9 160 328V376C160 398.1 177.9 416 200 416H248C270.1 416 288 398.1 288 376V328ZM320 136V184C320 206.1 337.9 224 360 224H408C430.1 224 448 206.1 448 184V136C448 113.9 430.1 96 408 96H360C337.9 96 320 113.9 320 136ZM448 328C448 305.9 430.1 288 408 288H360C337.9 288 320 305.9 320 328V376C320 398.1 337.9 416 360 416H408C430.1 416 448 398.1 448 376V328Z" fill="#747680"/>
</svg>
